<svg width="18" height="16" viewBox="0 0 18 16" fill="none" xmlns="http://www.w3.org/2000/svg">
<g clip-path="url(#clip0_8_84)">
<path d="M10.1777 14.7536L9.39727 15.5464C9.0668 15.8821 8.53242 15.8821 8.20547 15.5464L1.37109 8.60714C1.04062 8.27143 1.04062 7.72857 1.37109 7.39643L8.20547 0.453568C8.53594 0.117854 9.07031 0.117854 9.39727 0.453568L10.1777 1.24643C10.5117 1.58571 10.5047 2.13928 10.1637 2.47143L5.92734 6.57143L16.0312 6.57143C16.4988 6.57143 16.875 6.95357 16.875 7.42857V8.57143C16.875 9.04643 16.4988 9.42857 16.0312 9.42857L5.92734 9.42857L10.1637 13.5286C10.5082 13.8607 10.5152 14.4143 10.1777 14.7536Z" fill="white"/>
</g>
<defs>
<clipPath id="clip0_8_84">
<rect width="16" height="18" fill="white" transform="matrix(0 1 -1 0 18 0)"/>
</clipPath>
</defs>
</svg>
