<svg width="30" height="30" viewBox="0 0 30 30" fill="none" xmlns="http://www.w3.org/2000/svg">
<g clip-path="url(#clip0_8_80)">
<path d="M29.5312 15C29.5312 23.0273 23.0273 29.5312 15 29.5312C6.97266 29.5312 0.46875 23.0273 0.46875 15C0.46875 6.97266 6.97266 0.46875 15 0.46875C23.0273 0.46875 29.5312 6.97266 29.5312 15ZM21.1172 13.3066L16.875 17.7305V7.03125C16.875 6.25195 16.248 5.625 15.4688 5.625H14.5312C13.752 5.625 13.125 6.25195 13.125 7.03125V17.7305L8.88281 13.3066C8.33789 12.7383 7.42969 12.7266 6.87305 13.2832L6.23438 13.9277C5.68359 14.4785 5.68359 15.3691 6.23438 15.9141L14.0039 23.6895C14.5547 24.2402 15.4453 24.2402 15.9902 23.6895L23.7656 15.9141C24.3164 15.3633 24.3164 14.4727 23.7656 13.9277L23.127 13.2832C22.5703 12.7266 21.6621 12.7383 21.1172 13.3066Z" fill="white"/>
</g>
<defs>
<clipPath id="clip0_8_80">
<rect width="30" height="30" fill="white"/>
</clipPath>
</defs>
</svg>
